<?xml version="1.0" standalone="no"?>
<!DOCTYPE svg PUBLIC "-//W3C//DTD SVG 20010904//EN"
 "http://www.w3.org/TR/2001/REC-SVG-20010904/DTD/svg10.dtd">
<svg version="1.0" xmlns="http://www.w3.org/2000/svg"
 width="239.000000pt" height="239.000000pt" viewBox="0 0 239.000000 239.000000"
 preserveAspectRatio="xMidYMid meet">
<metadata>
Created by potrace 1.14, written by Peter Selinger 2001-2017
</metadata>
<g transform="translate(0.000000,239.000000) scale(0.100000,-0.100000)"
fill="#000000" stroke="none">
<path d="M1130 2353 c-474 -38 -846 -310 -1025 -748 -5 -11 -9 -22 -10 -25 0
-3 -8 -30 -17 -60 -35 -116 -47 -213 -43 -350 1 -74 5 -146 9 -160 54 -235
106 -354 219 -509 54 -73 172 -190 249 -244 107 -77 287 -161 388 -183 130
-27 181 -33 300 -32 133 0 315 29 362 58 10 5 23 10 29 10 5 0 44 16 86 35
308 142 551 432 633 755 28 111 30 126 37 240 21 399 -174 788 -512 1016 -166
113 -393 188 -584 193 -41 1 -77 3 -80 4 -3 2 -22 1 -41 0z"/>
</g>
</svg>
